<svg width="995" height="960" viewBox="0 0 995 960" fill="none" xmlns="http://www.w3.org/2000/svg">
<g clip-path="url(#clip0)">
<path fill-rule="evenodd" clip-rule="evenodd" d="M652.066 592.136C638.078 567.467 619.64 550.3 619.64 550.3C619.64 550.3 603.744 514.44 600.311 504.395C596.878 494.476 623.582 509.481 623.582 509.481C623.582 509.481 602.981 481.887 592.554 474.766C590.901 467.518 582.254 437.508 582.254 437.508C582.254 437.508 590.647 438.652 596.496 440.941C596.242 435.346 574.624 412.202 574.624 412.202L570.809 387.279C570.809 387.279 577.295 387.66 584.161 393.382C582.763 386.007 568.648 373.545 564.451 368.967C561.775 337.494 550.537 289.799 542.877 268.293C544.741 267.096 546.612 265.886 548.454 264.687L548.811 265.203C561.272 296.74 567.63 330.183 572.081 365.153C590.265 378.759 602.6 402.538 609.721 420.086C601.201 410.677 587.849 405.081 581.364 399.868C582.127 402.792 582.763 405.717 583.526 408.769C605.652 428.988 618.114 452.64 626.379 473.113C616.206 461.923 600.82 454.039 593.699 448.698C594.716 452.513 595.733 456.455 596.878 460.397C617.732 485.575 642.274 518.128 653.337 545.595C638.46 529.191 620.657 519.527 612.264 514.568C613.027 516.984 613.663 519.273 614.426 521.689C636.934 551.317 674.828 603.327 690.342 641.475C670.25 619.349 649.141 602.691 639.095 597.477C648.887 625.58 649.65 670.722 646.344 696.663C646.216 697.553 646.979 698.189 647.869 697.935C654.991 695.9 682.839 687.126 706.11 666.653C744.385 688.398 780.499 696.409 807.712 699.842C808.856 699.969 809.619 698.698 808.983 697.808C798.175 682.676 740.316 601.928 741.842 599.257C746.42 591.246 755.957 569.374 755.957 569.374C790.672 618.84 847.132 648.723 907.661 649.486C908.805 649.486 909.441 648.215 908.805 647.325C894.563 627.614 785.586 476.165 786.221 472.859C788.892 459.761 796.14 446.409 797.412 432.421L840.52 493.84C875.362 543.433 931.822 573.189 992.351 574.079C993.495 574.079 994.131 572.808 993.495 571.918L660.967 95.6968C656.516 89.3387 646.979 89.8474 643.164 96.4598C643.164 96.4598 616.715 139.059 635.535 176.19C669.36 243.332 653.846 302.843 623.836 308.184C603.385 311.824 578.86 285.111 555.492 260.077C564.274 254.29 571.064 249.69 571.064 249.69C571.064 249.69 563.688 223.367 561.145 218.789C558.729 214.212 555.932 209.761 552.498 205.692C549.319 202.004 545.631 198.316 540.799 195.9C536.476 185.727 530.372 176.19 522.488 168.179C520.835 166.526 519.055 165 517.274 163.474C518.8 158.26 519.436 154.827 519.436 154.827L509.645 157.879C505.448 155.081 500.871 152.92 496.293 151.012C508.627 141.729 519.945 132.828 526.303 126.47C546.522 106.378 538.383 53.352 538.383 53.352L482.178 91.6277L498.2 65.941C514.604 42.6704 482.941 2.36011 482.941 2.36011L334.67 217.263C183.983 406.48 238.282 626.724 349.039 705.946C350.438 706.963 352.218 705.692 351.837 704.039C350.565 699.207 349.294 696.918 350.947 688.906C356.16 662.33 359.975 634.227 379.94 602.564C369.894 607.777 353.49 621.638 333.398 643.891C348.785 605.743 386.171 556.913 408.551 527.157C409.314 524.741 409.95 522.452 410.713 520.036C402.32 524.995 384.518 534.659 369.64 551.063C380.83 523.469 405.245 490.916 426.099 465.865C427.117 461.923 428.261 457.981 429.278 454.166C422.157 459.507 406.771 467.518 396.598 478.581C404.863 458.108 417.325 434.456 439.451 414.237C440.214 411.185 440.977 408.26 441.613 405.336C435.128 410.549 421.903 416.144 413.256 425.554C420.377 407.879 432.712 384.227 450.896 370.621C456.498 346.032 457.107 331.432 457.141 326.889L407.238 370.864C412.22 360.239 419.921 349.751 431.44 340.229C435.188 337.106 438.813 334.351 441.953 331.964L441.954 331.963L442.122 331.836C442.843 331.269 443.723 330.551 444.734 329.723C444.878 329.605 445.025 329.484 445.175 329.361C449.267 326.007 455.31 321.053 461.757 316.887C464.173 315.325 466.646 313.874 469.094 312.659C469.447 313.485 469.57 314.384 469.462 315.305C469.334 315.941 469.08 316.322 468.699 316.704L462.049 322.564C462.351 329.329 462.6 338.677 462.086 345.061C461.196 356.124 457.763 374.308 457.763 374.308C457.763 374.308 439.451 391.348 438.053 398.723C445.046 392.874 451.405 392.619 451.405 392.619L447.59 417.543C447.59 417.543 425.972 440.687 425.718 446.282C431.567 443.993 439.96 442.848 439.96 442.848C439.96 442.848 431.313 472.859 429.66 480.107C419.36 487.101 398.632 514.822 398.632 514.822C398.632 514.822 425.336 499.817 421.903 509.736C418.47 519.654 402.574 555.641 402.574 555.641C402.574 555.641 384.136 572.808 370.148 597.477C377.651 592.645 385.535 587.94 391.13 584.888C393.419 583.616 395.962 586.033 394.818 588.321C379.685 619.73 368.877 651.902 361.501 684.71C360.738 688.271 360.738 692.085 361.756 695.646C362.487 698.14 363.543 701.118 364.973 704.19L347.513 739.898C347.513 739.898 335.306 734.43 323.226 741.424C310.509 735.448 296.394 734.812 281.644 748.418C274.269 754.958 270.929 762.906 269.417 768.764H409.539C409.268 767.546 409.06 766.857 409.06 766.857C409.06 766.857 404.736 748.545 394.69 744.858C396.438 736.72 398.467 728.848 399.872 721.783C401.697 720.941 403.272 719.597 404.228 717.899C421.394 689.924 438.943 677.462 461.45 671.485C430.932 691.831 412.366 730.234 412.366 730.234C412.366 730.234 488.536 755.666 578.948 731.378C578.948 731.378 563.18 690.687 533.17 670.341C564.451 681.404 582.763 709.507 587.086 715.483C588.204 717.038 590.477 717.888 593.451 718.105C594.814 726.036 597.248 735.201 599.294 744.73C589.248 748.418 584.924 766.729 584.924 766.729C584.924 766.729 584.702 767.467 584.417 768.764H725.31C722.978 763.014 718.798 754.596 712.468 748.418C701.913 738.118 683.602 735.448 670.886 741.424C658.805 734.43 646.598 739.898 646.598 739.898L628.618 703.127C631.468 699.964 633.515 696.385 634.263 692.467C637.951 673.52 632.864 617.314 624.09 581.582C623.582 579.293 625.998 577.513 628.032 578.657C634.645 581.455 643.546 586.668 652.066 592.136ZM340.774 375.707L392.147 426.572C393.755 423.25 391.569 407.374 395.18 391.504C398.333 372.932 407.401 353.034 428.007 336.033C431.949 332.853 435.636 330.056 438.815 327.513C439.279 327.163 439.851 326.726 440.514 326.22C440.558 326.186 440.603 326.152 440.648 326.118C442.485 324.716 444.979 322.812 447.744 320.766C453.83 316.26 461.221 311.065 465.769 309.025C457.202 302.717 435.378 307.484 424.828 313.906C400.355 282.358 383.184 283.122 374.242 287.414C373.262 285.873 372.459 284.418 371.854 283.085C370.715 283.158 369.466 283.146 367.986 282.752C366.715 282.497 363.536 280.463 362.646 279.064C363.154 281.989 364.299 290.127 367.096 293.052L330.219 334.761C320.682 345.061 330.982 365.916 340.774 375.707ZM497.31 161.439C494.894 160.295 492.351 159.278 489.807 158.388C488.917 158.133 487.9 157.879 486.883 157.625C481.033 161.821 475.311 165.89 469.716 169.832L497.31 161.439ZM539.273 259.354C543.343 256.938 547.412 254.395 551.354 251.724C552.52 250.982 553.665 250.217 554.787 249.468C556.356 248.42 557.882 247.4 559.365 246.511C559.238 245.621 558.983 244.73 558.729 243.967C558.093 241.679 557.457 239.39 556.695 237.101C555.169 232.523 553.515 228.072 551.608 223.749C549.701 219.425 547.539 215.229 544.996 211.541C542.452 207.854 539.401 204.547 535.967 202.767L534.441 202.004L533.805 200.605C529.228 190.178 522.488 180.641 514.095 173.138C509.585 186.363 502.098 203.555 491.037 213.52C488.378 215.916 485.513 217.893 482.432 219.298C462.554 228.333 421.611 226.936 387.222 247.626C382.892 250.231 378.666 253.186 374.599 256.556L371.293 258.845L375.108 268.255C375.108 268.255 373.293 269.454 371.643 271.149C370.024 272.811 368.564 274.95 369.131 276.902C369.143 276.939 369.153 276.97 369.161 276.996C369.189 277.082 369.199 277.115 369.222 277.131C369.235 277.141 369.253 277.144 369.282 277.15C369.339 277.163 369.441 277.184 369.64 277.284C369.861 277.339 370.179 277.37 370.542 277.378C371.011 277.387 371.553 277.356 372.056 277.284C373.963 276.902 376.125 276.267 378.287 275.376C382.61 273.723 386.425 271.434 391.13 269.145C395.581 266.857 400.286 265.076 405.118 263.55C410.077 262.152 415.036 261.007 420.123 260.626C425.209 259.99 430.423 260.117 435.509 260.626C445.809 261.77 455.728 265.076 464.629 270.417C466.791 271.689 469.334 273.342 471.115 274.741L474.039 276.902C474.675 277.411 475.565 277.92 476.328 278.301C479.635 279.827 483.704 280.209 488.027 279.954C496.674 279.318 505.703 276.139 514.222 272.452C515.192 272.032 516.161 271.601 517.127 271.159C524.65 267.718 532.061 263.636 539.273 259.354Z" fill="#010103"/>
<path fill-rule="evenodd" clip-rule="evenodd" d="M489.807 158.388C492.351 159.278 494.894 160.295 497.31 161.439L469.716 169.832C475.311 165.89 481.033 161.821 486.883 157.625C487.9 157.879 488.917 158.133 489.807 158.388Z" fill="#010103"/>
<path fill-rule="evenodd" clip-rule="evenodd" d="M142.274 954.547V774.105C142.274 771.18 144.69 768.764 147.615 768.764H845.606C848.531 768.764 850.947 771.18 850.947 774.105V954.547C850.947 957.472 848.531 959.888 845.606 959.888H147.615C144.69 959.888 142.274 957.472 142.274 954.547ZM228.109 844.425V849.13H241.715V844.298C241.715 836.923 239.426 831.327 234.975 827.258C230.525 823.316 225.184 821.282 219.08 821.282C212.976 821.282 207.763 823.316 203.185 827.385C198.607 831.455 196.318 837.05 196.318 844.298V894.145C196.318 901.521 198.607 907.116 203.058 911.185C207.508 915.127 212.849 917.162 218.953 917.162C225.057 917.162 230.27 915.127 234.848 911.058C239.426 906.989 241.715 901.394 241.715 894.145V864.517H217.427V876.47H228.109V894.273C228.109 897.452 227.346 899.74 225.565 901.394C223.785 903.047 221.623 903.81 218.953 903.81C216.283 903.81 214.121 903.047 212.341 901.394C210.687 899.74 209.797 897.324 209.797 894.273V844.425C209.797 841.246 210.56 838.957 212.341 837.304C214.121 835.651 216.283 834.888 218.953 834.888C221.623 834.888 223.912 835.651 225.565 837.304C227.218 838.957 228.109 841.373 228.109 844.425ZM287.747 916.399L275.031 876.088H267.02V916.399H253.541V822.045H275.286C291.181 822.045 299.192 831.328 299.192 849.766C299.192 855.488 298.302 860.32 296.522 864.135C294.741 867.95 291.689 871.002 287.493 873.418L302.117 916.526L287.747 916.399ZM274.014 834.761H267.02V864.135H274.65C278.973 864.135 281.898 862.991 283.297 860.575C284.696 858.286 285.459 854.471 285.459 849.384C285.459 844.171 284.696 840.356 283.17 838.067C281.771 835.905 278.719 834.761 274.014 834.761ZM347.259 910.804C351.455 906.607 353.617 901.394 353.617 895.163V822.045H340.138V893.891C340.138 900.376 337.341 903.682 331.745 903.682C329.202 903.682 327.168 902.792 325.642 901.139C324.116 899.486 323.353 897.07 323.353 893.891V822.045H309.874V895.163C309.874 901.394 312.035 906.607 316.232 910.804C320.428 915 325.642 917.162 331.745 917.162C337.849 917.162 343.063 915 347.259 910.804ZM409.568 861.846C409.06 864.644 407.915 867.441 406.135 870.239C404.355 873.164 401.939 875.325 398.76 877.106C395.581 878.759 391.639 879.649 386.806 879.649H379.94V916.526H366.461V822.172H386.679C390.621 822.172 393.927 822.681 396.598 823.698C399.268 824.715 401.812 826.368 404.1 828.784C406.389 831.2 408.042 833.998 408.805 837.304C409.696 840.61 410.077 845.188 410.077 850.91C410.204 855.361 410.077 859.049 409.568 861.846ZM386.934 834.761H379.94V866.806H386.425C391.384 866.806 394.436 865.534 395.708 863.118C396.979 860.702 397.615 856.633 397.615 850.91C397.615 845.315 396.979 841.119 395.835 838.576C394.69 836.032 391.766 834.761 386.934 834.761ZM460.052 870.239C461.832 867.441 462.976 864.644 463.485 861.846C463.994 859.049 464.248 855.361 463.994 850.91C463.994 845.188 463.612 840.61 462.722 837.304C461.959 833.998 460.306 831.2 458.017 828.784C455.728 826.368 453.185 824.715 450.514 823.698C447.844 822.681 444.538 822.172 440.596 822.172H420.377V916.526H433.856V879.649H440.723C445.555 879.649 449.497 878.759 452.676 877.106C455.855 875.325 458.271 873.164 460.052 870.239ZM433.856 834.761H440.85C445.682 834.761 448.607 836.032 449.752 838.576C450.896 841.119 451.532 845.315 451.532 850.91C451.532 856.633 450.896 860.702 449.624 863.118C448.353 865.534 445.301 866.806 440.342 866.806H433.856V834.761ZM514.604 834.761H487.773V862.609H511.043V875.325H487.773V902.92H514.604V916.399H474.294V822.045H514.604V834.761ZM577.803 896.18L581.745 916.399H595.479L574.37 822.045H563.053L541.944 916.399H555.55L559.492 896.18H577.803ZM575.26 883.464H561.781L568.648 849.384L575.26 883.464ZM645.708 890.585C645.708 899.105 643.546 905.59 639.223 909.913C634.899 914.237 628.795 916.399 620.784 916.399H601.964V822.045H621.929C629.558 822.045 635.408 824.206 639.477 828.53C643.546 832.853 645.581 838.83 645.581 846.46V890.585H645.708ZM621.674 834.761H615.443V903.682H621.674C625.489 903.682 628.159 902.792 629.813 900.885C631.466 898.977 632.229 896.053 632.229 891.856V846.333C632.229 842.391 631.466 839.593 629.813 837.558C628.159 835.778 625.489 834.761 621.674 834.761ZM658.297 916.399H698.607V902.92H671.776V822.045H658.297V916.399ZM747.691 834.761H720.86V862.609H744.131V875.325H720.86V902.92H747.691V916.399H707.381V822.045H747.691V834.761ZM777.956 876.088L790.672 916.399L805.041 916.526L790.418 873.418C794.741 871.002 797.666 867.95 799.446 864.135C801.227 860.32 802.117 855.488 802.117 849.766C802.117 831.328 794.106 822.045 778.21 822.045H756.466V916.399H769.945V876.088H777.956ZM769.945 834.761H777.066C781.644 834.761 784.823 835.905 786.094 838.067C787.62 840.356 788.383 844.171 788.383 849.384C788.383 854.471 787.62 858.286 786.221 860.575C784.823 862.991 781.898 864.135 777.574 864.135H769.945V834.761Z" fill="#010103"/>
<path d="M228.108 849.13V844.425C228.108 841.373 227.218 838.957 225.565 837.304C223.912 835.651 221.623 834.888 218.953 834.888C216.282 834.888 214.121 835.651 212.34 837.304C210.56 838.957 209.797 841.246 209.797 844.425V894.273C209.797 897.325 210.687 899.741 212.34 901.394C214.121 903.047 216.282 903.81 218.953 903.81C221.623 903.81 223.785 903.047 225.565 901.394C227.345 899.741 228.108 897.452 228.108 894.273V876.47H217.427V864.517H241.715V894.145C241.715 901.394 239.426 906.989 234.848 911.058C230.27 915.127 225.056 917.162 218.953 917.162C212.849 917.162 207.508 915.127 203.057 911.185C198.607 907.116 196.318 901.521 196.318 894.145V844.298C196.318 837.05 198.607 831.455 203.185 827.385C207.762 823.316 212.976 821.282 219.08 821.282C225.184 821.282 230.524 823.316 234.975 827.258C239.426 831.328 241.715 836.923 241.715 844.298V849.13H228.108Z" fill="#CECDC4"/>
<path fill-rule="evenodd" clip-rule="evenodd" d="M287.747 916.399L275.031 876.088H267.02V916.399H253.541V822.045H275.285C291.181 822.045 299.192 831.328 299.192 849.766C299.192 855.488 298.302 860.32 296.521 864.135C294.741 867.95 291.689 871.002 287.493 873.418L302.116 916.526L287.747 916.399ZM267.02 834.761H274.014C278.719 834.761 281.771 835.905 283.169 838.067C284.695 840.356 285.458 844.171 285.458 849.384C285.458 854.471 284.695 858.286 283.297 860.575C281.898 862.991 278.973 864.135 274.65 864.135H267.02V834.761Z" fill="#CECDC4"/>
<path d="M353.617 895.163C353.617 901.394 351.455 906.607 347.259 910.804C343.063 915 337.849 917.162 331.745 917.162C325.641 917.162 320.428 915 316.231 910.804C312.035 906.607 309.873 901.394 309.873 895.163V822.045H323.352V893.891C323.352 897.07 324.115 899.486 325.641 901.139C327.167 902.792 329.202 903.683 331.745 903.683C337.34 903.683 340.138 900.376 340.138 893.891V822.045H353.617V895.163Z" fill="#CECDC4"/>
<path fill-rule="evenodd" clip-rule="evenodd" d="M409.568 861.846C409.059 864.644 407.915 867.441 406.135 870.239C404.354 873.164 401.938 875.326 398.759 877.106C395.58 878.759 391.638 879.649 386.806 879.649H379.939V916.526H366.46V822.172H386.679C390.621 822.172 393.927 822.681 396.598 823.698C399.268 824.715 401.811 826.368 404.1 828.784C406.389 831.2 408.042 833.998 408.805 837.304C409.695 840.61 410.077 845.188 410.077 850.91C410.204 855.361 410.077 859.049 409.568 861.846ZM379.939 834.761H386.933C391.765 834.761 394.69 836.032 395.835 838.576C396.979 841.119 397.615 845.315 397.615 850.91C397.615 856.633 396.979 860.702 395.707 863.118C394.436 865.534 391.384 866.806 386.425 866.806H379.939V834.761Z" fill="#CECDC4"/>
<path fill-rule="evenodd" clip-rule="evenodd" d="M463.485 861.846C462.976 864.644 461.832 867.441 460.051 870.239C458.271 873.164 455.855 875.326 452.676 877.106C449.497 878.759 445.555 879.649 440.723 879.649H433.856V916.526H420.377V822.172H440.596C444.538 822.172 447.844 822.681 450.514 823.698C453.185 824.715 455.728 826.368 458.017 828.784C460.306 831.2 461.959 833.998 462.722 837.304C463.612 840.61 463.993 845.188 463.993 850.91C464.248 855.361 463.993 859.049 463.485 861.846ZM433.856 834.761H440.85C445.682 834.761 448.607 836.032 449.751 838.576C450.896 841.119 451.532 845.315 451.532 850.91C451.532 856.633 450.896 860.702 449.624 863.118C448.352 865.534 445.301 866.806 440.341 866.806H433.856V834.761Z" fill="#CECDC4"/>
<path d="M514.604 834.761H487.773V862.609H511.043V875.325H487.773V902.92H514.604V916.399H474.293V822.045H514.604V834.761Z" fill="#CECDC4"/>
<path fill-rule="evenodd" clip-rule="evenodd" d="M581.745 916.399L577.803 896.18H559.492L555.55 916.399H541.944L563.052 822.045H574.37L595.479 916.399H581.745ZM575.26 883.464H561.781L568.648 849.384L575.26 883.464Z" fill="#CECDC4"/>
<path fill-rule="evenodd" clip-rule="evenodd" d="M645.707 890.585C645.707 899.105 643.546 905.59 639.222 909.914C634.899 914.237 628.795 916.399 620.784 916.399H601.964V822.045H621.928C629.558 822.045 635.407 824.206 639.477 828.53C643.546 832.853 645.58 838.83 645.58 846.46V890.585H645.707ZM615.443 834.761H621.674C625.489 834.761 628.159 835.778 629.812 837.558C631.465 839.593 632.228 842.391 632.228 846.333V891.857C632.228 896.053 631.465 898.978 629.812 900.885C628.159 902.792 625.489 903.683 621.674 903.683H615.443V834.761Z" fill="#CECDC4"/>
<path d="M698.607 916.399H658.297V822.045H671.776V902.92H698.607V916.399Z" fill="#CECDC4"/>
<path d="M747.691 834.761H720.86V862.609H744.131V875.325H720.86V902.92H747.691V916.399H707.381V822.045H747.691V834.761Z" fill="#CECDC4"/>
<path fill-rule="evenodd" clip-rule="evenodd" d="M790.672 916.399L777.956 876.088H769.945V916.399H756.465V822.045H778.21C794.105 822.045 802.116 831.328 802.116 849.766C802.116 855.488 801.226 860.32 799.446 864.135C797.666 867.95 794.741 871.002 790.418 873.418L805.041 916.526L790.672 916.399ZM769.945 834.761H777.066C781.643 834.761 784.822 835.905 786.094 838.067C787.62 840.356 788.383 844.171 788.383 849.384C788.383 854.471 787.62 858.286 786.221 860.575C784.822 862.991 781.898 864.135 777.574 864.135H769.945V834.761Z" fill="#CECDC4"/>
<path d="M691.359 745.239C704.075 748.037 710.56 757.065 714.629 766.729C714.891 767.35 715.089 768.032 715.23 768.764H686.874C687.166 770.282 687.21 772.018 687.054 773.885C686.12 785.133 677.946 801.159 673.047 803.098C666.944 805.514 663.001 797.757 663.001 778.047C663.001 770.691 644.426 769.064 632.86 768.764C628.678 768.656 625.412 768.721 624.273 768.751C623.988 768.759 623.836 768.764 623.836 768.764L591.65 768.764C591.771 768.032 591.944 767.35 592.172 766.729C594.852 759.457 598.827 752.545 605.507 748.377C605.111 734.193 602.07 719.433 599.548 709.634C597.513 701.495 603.871 693.23 612.137 693.993C615.952 694.247 619.258 696.282 620.402 701.495C620.402 701.495 633.091 730.914 644.036 747.484C649.853 745.474 656.971 743.912 663.001 745.239C665.904 745.878 668.483 746.841 670.782 748.063C676.856 745.795 684.758 743.787 691.359 745.239Z" fill="#CC7910"/>
<path d="M302.752 745.239C290.036 748.037 283.551 757.065 279.482 766.729C279.22 767.35 279.022 768.032 278.881 768.764H307.243C305.195 779.426 315.358 800.833 321.069 803.094C322.811 803.783 324.378 803.644 325.726 802.635C329.099 800.103 331.109 792.123 331.109 778.047C331.109 776.359 331.983 774.971 333.471 773.831C340.103 768.739 358.962 768.588 366.86 768.764H402.461C402.34 768.032 402.167 767.35 401.938 766.729C399.243 759.412 395.234 752.459 388.479 748.299C388.884 734.139 391.918 719.415 394.436 709.634C396.47 701.495 390.112 693.23 381.847 693.993C378.032 694.247 374.726 696.282 373.581 701.495C373.581 701.495 360.911 730.872 349.972 747.448C344.174 745.456 337.105 743.92 331.109 745.239C328.206 745.878 325.628 746.841 323.329 748.063C317.255 745.795 309.353 743.787 302.752 745.239Z" fill="#CC7910"/>
<path d="M704.329 758.082C699.751 753.504 691.867 755.666 696.318 762.66C700.642 769.654 702.168 769.4 710.052 779.064C713.612 772.579 708.78 762.66 704.329 758.082Z" fill="#010103"/>
<path d="M680.932 776.521C679.66 770.417 672.157 767.874 671.903 775.885C671.649 783.896 674.828 779.827 674.192 796.485C680.55 793.179 682.076 782.625 680.932 776.521Z" fill="#010103"/>
<path d="M289.528 757.446C294.36 753.123 302.117 755.666 297.412 762.406C292.707 769.145 291.181 768.891 282.788 778.174C279.609 771.434 284.823 761.77 289.528 757.446Z" fill="#010103"/>
<path d="M314.07 777.029C314.833 770.799 322.208 767.747 322.971 775.758C323.734 783.769 318.775 783.26 322.208 798.774C315.469 795.849 313.307 783.26 314.07 777.029Z" fill="#010103"/>
<path d="M412.559 269.106C413.32 277.703 420.623 284.532 429.406 284.532C437.475 284.532 444.235 278.922 445.997 271.47C443.983 270.778 441.933 270.184 439.855 269.689C438.825 274.476 434.501 278.047 429.406 278.047C423.815 278.047 419.269 273.749 418.878 268.261C416.764 268.442 414.653 268.728 412.559 269.106Z" fill="white"/>
<path fill-rule="evenodd" clip-rule="evenodd" d="M497.31 161.439C494.894 160.295 492.351 159.278 489.808 158.387C488.918 158.133 487.9 157.879 486.883 157.625C481.034 161.821 475.311 165.89 469.716 169.832L497.31 161.439Z" fill="#CECDC4"/>
<path d="M539.274 259.354C543.343 256.938 547.412 254.395 551.354 251.724C554.152 249.944 556.822 248.037 559.365 246.511C559.238 245.62 558.984 244.73 558.73 243.967C558.094 241.678 557.458 239.39 556.695 237.101C555.169 232.523 553.516 228.072 551.608 223.749C549.701 219.425 547.539 215.229 544.996 211.541C542.453 207.853 539.401 204.547 535.968 202.767L534.442 202.004L533.806 200.605C529.228 190.178 522.488 180.641 514.096 173.138C512.183 178.746 509.735 185.067 506.707 191.248L516.639 190.305C516.639 190.305 498.582 229.217 476.201 236.083C449.634 244.158 433.63 245.489 421.449 246.501C404.422 247.917 394.866 248.712 374.37 266.435L375.108 268.255C375.108 268.255 367.987 272.96 369.131 276.902C369.259 277.284 369.131 277.029 369.64 277.284C370.149 277.411 371.166 277.411 372.056 277.284C373.964 276.902 376.125 276.266 378.287 275.376C382.61 273.723 386.425 271.434 391.13 269.145C395.581 266.856 400.286 265.076 405.118 263.55C410.077 262.151 415.037 261.007 420.123 260.626C425.21 259.99 430.423 260.117 435.51 260.626C445.81 261.77 455.728 265.076 464.63 270.417C466.792 271.689 469.335 273.342 471.115 274.74L474.04 276.902C474.676 277.411 475.566 277.92 476.329 278.301C479.635 279.827 483.704 280.208 488.028 279.954C496.675 279.318 505.703 276.139 514.223 272.452C522.743 268.764 531.135 264.186 539.274 259.354Z" fill="#CECDC4"/>
<path fill-rule="evenodd" clip-rule="evenodd" d="M516.639 190.305L506.707 191.248C500.877 203.147 492.894 214.528 482.432 219.298C474.88 222.731 464.287 224.658 452.167 226.862C428.373 231.191 398.695 236.589 374.599 256.556L371.293 258.845L374.37 266.435C394.866 248.712 404.422 247.917 421.449 246.502C433.63 245.489 449.634 244.158 476.201 236.083C498.582 229.217 516.639 190.305 516.639 190.305Z" fill="#A7A49B"/>
<path fill-rule="evenodd" clip-rule="evenodd" d="M421.449 246.502C404.422 247.917 394.866 248.712 374.37 266.435L371.293 258.845L374.599 256.556C398.695 236.589 428.373 231.191 452.167 226.862C464.287 224.658 474.88 222.731 482.432 219.298C492.894 214.528 500.877 203.147 506.707 191.248L516.639 190.305C516.639 190.305 498.582 229.217 476.201 236.083C449.634 244.158 433.63 245.489 421.449 246.502Z" fill="#A7A49B"/>
<path d="M534.95 217.518L544.614 239.389C545.504 241.424 544.614 243.713 542.579 244.603L542.452 244.73L542.198 244.857L510.535 256.938H510.407C508.5 257.701 506.465 256.683 505.703 254.776C505.703 254.649 505.575 254.395 505.575 254.267L499.472 227.691V227.563C499.09 226.037 500.107 224.384 501.633 224.003L531.771 215.737C533.042 215.356 534.441 215.992 534.95 217.263V217.518Z" fill="#010103"/>
<path d="M502.396 227.055L532.407 218.408L535.84 226.292L504.813 236.592L502.396 227.055Z" fill="#010103"/>
<path d="M504.812 236.592L535.84 226.292L538.383 233.413L507.229 245.875L504.812 236.592Z" fill="#C1000C"/>
<path d="M507.229 245.875L538.383 233.413L540.672 240.788L509.263 253.377L507.229 245.875Z" fill="#EEB11B"/>
<path d="M367.096 292.925C367.096 292.925 387.442 265.712 424.828 313.906C435.378 307.484 457.202 302.717 465.769 309.025C458.347 312.354 443.35 324.086 438.815 327.513C435.636 330.056 431.949 332.853 428.007 336.032C407.401 353.034 398.333 372.932 395.18 391.503C391.569 407.374 393.755 423.25 392.147 426.572L340.774 375.707C330.982 365.916 320.682 345.061 330.219 334.761L367.096 293.052L367.005 292.959L367.096 292.925Z" fill="#D18D1E"/>
<path d="M399.904 318.484C396.471 322.553 377.905 311.872 372.437 308.566C371.802 308.184 371.929 307.294 372.692 307.04C377.142 305.768 388.714 302.462 393.546 303.734C399.65 305.514 403.973 313.779 399.904 318.484Z" fill="#854205"/>
<path d="M396.216 315.305C393.419 318.484 376.506 308.693 376.506 307.93C376.506 307.04 387.824 304.242 391.893 305.387C396.089 306.404 399.014 311.999 396.216 315.305Z" fill="#010103"/>
<path d="M512.315 279.064C505.703 281.48 500.998 284.278 498.2 285.041C497.437 285.295 496.928 286.058 497.056 286.948C505.575 349.893 512.061 352.818 515.494 354.217C519.055 355.615 531.644 348.113 533.042 344.425C535.967 336.032 518.037 331.073 513.841 280.081C513.714 279.318 513.078 278.81 512.315 279.064ZM509.517 325.732C509.899 323.316 512.188 321.536 514.604 321.917C517.02 322.299 518.673 324.461 518.419 327.004C518.037 329.42 515.876 331.073 513.459 330.819C510.916 330.437 509.136 328.148 509.517 325.732ZM519.563 346.333C516.893 345.951 514.985 343.535 515.367 340.865C515.748 338.194 518.164 336.414 520.835 336.668C523.505 337.05 525.286 339.466 525.031 342.136C524.65 344.807 522.234 346.714 519.563 346.333Z" fill="#CECDC4"/>
<path d="M468.699 316.704C469.08 316.322 469.334 315.941 469.462 315.305C469.57 314.384 469.447 313.485 469.094 312.659C458.201 318.065 446.818 328.146 442.122 331.836L441.954 331.964C438.813 334.351 435.188 337.106 431.44 340.229C419.921 349.75 412.22 360.239 407.238 370.864L468.699 316.704Z" fill="#854605"/>
<g opacity="0.1">
<path d="M596.242 708.998C597.514 706.455 599.167 704.42 601.329 702.64C603.363 700.86 605.906 699.461 608.704 698.698C611.502 698.062 614.553 698.189 617.097 698.952C618.495 699.207 619.64 699.97 620.911 700.478C622.056 701.114 623.2 702.004 624.218 702.64C625.108 703.276 625.362 704.42 624.726 705.31C624.218 706.073 623.2 706.328 622.31 705.946L622.056 705.819C620.021 704.802 617.987 703.784 615.825 703.276C613.79 702.64 611.629 702.894 609.721 703.276C607.687 703.657 605.779 704.675 604.126 706.073C602.473 707.472 600.82 709.252 599.675 710.905L599.548 711.033C598.913 711.923 597.641 712.177 596.624 711.541C595.988 711.033 595.733 709.888 596.242 708.998Z" fill="#010103"/>
<path d="M597.641 717.645C599.294 714.975 601.201 712.94 603.617 711.16C606.034 709.38 608.704 707.981 611.756 707.345C614.808 706.709 617.987 706.836 620.784 707.726C622.31 707.981 623.582 708.744 624.981 709.252C626.252 709.888 627.524 710.651 628.668 711.414C629.558 711.923 629.813 713.067 629.304 713.957C628.795 714.847 627.778 715.102 626.888 714.72L626.634 714.593C624.345 713.576 622.056 712.558 619.64 712.05C617.351 711.414 614.935 711.668 612.646 712.05C610.357 712.431 608.195 713.449 606.288 714.847C604.38 716.246 602.473 718.026 601.074 719.807L600.947 719.934C600.311 720.824 598.912 720.951 598.022 720.315C597.259 719.68 597.132 718.535 597.641 717.645Z" fill="#010103"/>
<path d="M598.912 726.165C600.82 723.367 603.109 721.333 605.779 719.552C608.45 717.772 611.501 716.5 614.68 715.865C617.859 715.356 621.293 715.483 624.345 716.246C625.998 716.501 627.397 717.263 628.795 717.645C630.194 718.281 631.593 719.044 632.865 719.807C633.755 720.315 634.136 721.46 633.628 722.35C633.119 723.24 632.102 723.622 631.212 723.24L630.957 723.113C628.414 722.096 625.871 721.078 623.2 720.57C620.53 719.934 617.987 720.188 615.443 720.57C612.9 720.951 610.484 721.968 608.195 723.367C606.033 724.766 603.745 726.546 602.219 728.454L602.091 728.581C601.329 729.471 600.057 729.598 599.167 728.835C598.531 728.327 598.404 727.055 598.912 726.165Z" fill="#010103"/>
<path d="M600.311 734.812C602.473 731.887 605.143 729.853 608.068 728.072C610.993 726.419 614.299 725.148 617.732 724.512C621.166 724.13 624.726 724.13 628.032 725.02C629.686 725.275 631.339 725.911 632.865 726.419C634.391 727.055 635.917 727.818 637.315 728.581C638.205 729.09 638.587 730.107 638.205 731.124C637.824 732.014 636.807 732.396 635.789 732.141L635.535 732.014C632.737 730.997 629.813 729.98 627.015 729.471C624.09 728.835 621.166 728.962 618.368 729.344C615.571 729.725 612.773 730.743 610.23 732.014C607.687 733.413 605.27 735.32 603.49 737.228L603.363 737.355C602.6 738.245 601.328 738.245 600.438 737.482C599.803 736.846 599.675 735.702 600.311 734.812Z" fill="#010103"/>
<path d="M601.71 743.459C604.253 740.407 607.051 738.372 610.357 736.592C613.663 734.939 617.097 733.794 620.784 733.286C624.472 732.904 628.16 733.032 631.72 733.795C633.5 734.049 635.154 734.685 636.934 735.193C638.587 735.829 640.24 736.592 641.893 737.228C642.91 737.609 643.292 738.754 642.91 739.771C642.529 740.661 641.512 741.17 640.621 740.788H640.494C637.315 739.771 634.263 738.754 631.084 738.245C627.905 737.609 624.726 737.736 621.674 738.118C618.495 738.499 615.571 739.39 612.646 740.788C609.848 742.187 607.178 744.095 605.016 746.129L604.889 746.256C604.126 747.019 602.727 747.019 601.964 746.256C601.074 745.493 600.947 744.222 601.71 743.459Z" fill="#010103"/>
<path d="M394.182 711.033C393.038 709.379 391.384 707.599 389.731 706.2C388.078 704.802 386.171 703.784 384.136 703.403C382.229 702.894 380.067 702.767 378.032 703.403C375.998 703.911 373.963 704.802 371.802 705.946L371.547 706.073C370.657 706.582 369.513 706.2 369.004 705.183C368.623 704.293 368.877 703.276 369.64 702.767C370.784 702.004 371.802 701.241 372.946 700.605C374.218 700.097 375.362 699.334 376.761 699.079C379.431 698.189 382.356 698.062 385.154 698.825C387.951 699.588 390.494 700.987 392.529 702.767C394.691 704.547 396.217 706.582 397.615 709.125C398.124 710.142 397.743 711.414 396.725 711.923C395.835 712.431 394.691 712.177 394.055 711.287L394.182 711.033Z" fill="#010103"/>
<path d="M392.91 719.807C391.512 718.026 389.604 716.246 387.697 714.847C385.789 713.449 383.5 712.431 381.339 712.05C379.05 711.668 376.761 711.414 374.345 712.05C371.929 712.558 369.64 713.449 367.351 714.593L367.097 714.72C366.206 715.102 365.062 714.72 364.553 713.83C364.172 712.94 364.426 711.923 365.316 711.414C366.588 710.651 367.732 709.888 369.004 709.252C370.403 708.744 371.674 708.108 373.2 707.726C375.998 706.836 379.177 706.836 382.229 707.345C385.281 707.981 387.951 709.38 390.367 711.16C392.783 712.94 394.691 714.975 396.344 717.645C396.98 718.662 396.598 719.934 395.581 720.443C394.691 720.951 393.546 720.697 392.91 719.934V719.807Z" fill="#010103"/>
<path d="M391.639 728.581C389.986 726.673 387.824 724.893 385.662 723.494C383.373 722.096 380.957 721.206 378.414 720.697C375.871 720.315 373.2 720.188 370.657 720.697C367.987 721.206 365.443 722.096 362.9 723.24L362.646 723.367C361.629 723.749 360.611 723.367 360.23 722.35C359.848 721.46 360.23 720.443 361.12 719.934C362.519 719.171 363.79 718.408 365.189 717.772C366.715 717.263 368.114 716.628 369.64 716.373C372.692 715.61 376.125 715.483 379.304 715.992C382.483 716.628 385.535 717.899 388.205 719.68C390.876 721.46 393.165 723.494 395.072 726.292C395.708 727.182 395.454 728.581 394.563 729.09C393.673 729.725 392.529 729.471 391.893 728.708L391.639 728.581Z" fill="#010103"/>
<path d="M390.494 737.355C388.714 735.448 386.171 733.54 383.755 732.141C381.212 730.743 378.414 729.852 375.616 729.471C372.819 729.089 369.894 728.962 366.969 729.598C364.045 730.107 361.247 730.997 358.45 732.141L358.195 732.269C357.178 732.65 356.161 732.141 355.779 731.124C355.398 730.234 355.906 729.217 356.669 728.708C358.195 727.945 359.594 727.182 361.12 726.546C362.773 726.038 364.299 725.402 365.952 725.148C369.258 724.385 372.819 724.257 376.252 724.639C379.686 725.147 382.992 726.419 385.917 728.199C388.968 729.98 391.512 732.014 393.673 734.939C394.309 735.829 394.182 737.101 393.292 737.864C392.402 738.5 391.257 738.372 390.494 737.609V737.355Z" fill="#010103"/>
<path d="M389.223 746.129C387.188 744.095 384.391 742.187 381.593 740.788C378.795 739.39 375.744 738.499 372.565 738.118C369.513 737.736 366.206 737.609 363.155 738.245C359.976 738.754 356.924 739.644 353.745 740.788H353.617C352.6 741.17 351.583 740.534 351.201 739.644C350.947 738.754 351.329 737.737 352.219 737.355C353.872 736.719 355.398 735.956 357.178 735.32C358.958 734.939 360.611 734.176 362.392 733.922C365.952 733.159 369.64 733.032 373.328 733.413C377.015 733.922 380.576 735.066 383.755 736.719C387.061 738.372 389.859 740.534 392.402 743.586C393.165 744.476 393.038 745.748 392.147 746.511C391.384 747.147 390.113 747.146 389.35 746.383L389.223 746.129Z" fill="#010103"/>
</g>
<g opacity="0.1">
<path d="M681.313 778.174C681.313 771.434 672.92 768.764 670.885 772.833C668.978 776.902 671.267 784.278 669.868 797.757C677.498 795.595 681.313 784.913 681.313 778.174Z" fill="#010103"/>
<path d="M314.96 779.827C314.96 773.087 321.063 768.891 323.225 772.833C326.913 779.446 322.844 784.278 324.242 797.757C316.613 795.595 314.96 786.567 314.96 779.827Z" fill="#010103"/>
<path d="M686.908 768.764C686.908 768.764 684.11 756.684 672.411 750.834C682.457 746.129 680.931 747.782 680.931 747.782C693.401 750.476 699.532 763.343 701.595 768.764C702.162 770.253 702.421 771.18 702.421 771.18L686.908 768.764Z" fill="#010103"/>
<path d="M609.085 769.4L655.753 771.816C655.753 771.689 622.818 745.366 609.085 769.4Z" fill="#010103"/>
<path d="M307.839 770.417C307.839 770.417 311.653 756.811 323.225 750.834C318.393 748.291 316.358 749.181 316.358 749.181C308.084 752.659 301.393 759.755 295.645 768.764C295.298 769.308 294.954 769.859 294.614 770.417H307.839Z" fill="#010103"/>
<path d="M387.188 769.4L338.357 771.943C338.485 771.943 373.581 745.366 387.188 769.4Z" fill="#010103"/>
<path d="M390.112 696.409C390.112 696.409 391.511 697.935 390.875 705.183C390.239 712.559 382.355 745.493 382.355 745.493L388.586 748.291L396.598 705.183C396.598 705.31 392.656 697.299 390.112 696.409Z" fill="#010103"/>
<path d="M602.6 697.299C602.6 697.299 601.201 698.825 601.837 706.073C602.472 713.321 610.356 746.383 610.356 746.383L604.126 749.181L596.114 706.073C596.114 706.073 600.056 698.062 602.6 697.299Z" fill="#010103"/>
</g>
<path d="M462.086 345.061C461.196 356.124 457.763 374.308 457.763 374.308C457.763 374.308 439.451 391.348 438.053 398.723C445.046 392.874 451.405 392.62 451.405 392.62L447.59 417.543C447.59 417.543 425.972 440.687 425.718 446.282C431.567 443.993 439.96 442.848 439.96 442.848C439.96 442.848 431.313 472.859 429.66 480.107C419.36 487.101 398.632 514.822 398.632 514.822C398.632 514.822 425.336 499.817 421.903 509.736C418.47 519.654 402.574 555.641 402.574 555.641C402.574 555.641 384.136 572.808 370.148 597.477C377.651 592.645 385.535 587.94 391.13 584.888C393.419 583.617 395.962 586.033 394.818 588.321C379.685 619.73 368.877 651.902 361.501 684.71C360.738 688.271 360.738 692.086 361.755 695.646C362.479 698.112 363.519 701.051 364.925 704.086L363.536 706.963C354.923 706.963 352.47 704.968 351.877 704.274C351.869 704.196 351.855 704.118 351.837 704.039C350.565 699.207 349.294 696.918 350.947 688.906C356.16 662.33 359.975 634.227 379.94 602.564C369.894 607.777 353.49 621.638 333.398 643.891C348.785 605.743 386.171 556.913 408.551 527.157C409.314 524.741 409.95 522.452 410.713 520.036C402.32 524.995 384.517 534.659 369.64 551.063C380.83 523.469 405.245 490.916 426.099 465.865C427.117 461.923 428.261 457.981 429.278 454.166C422.157 459.507 406.771 467.518 396.598 478.581C404.863 458.108 417.325 434.456 439.451 414.237C440.214 411.185 440.977 408.26 441.613 405.336C435.128 410.549 421.903 416.145 413.256 425.554C420.377 407.879 432.712 384.227 450.896 370.621C456.498 346.032 457.107 331.432 457.141 326.889L462.049 322.564C462.351 329.329 462.6 338.677 462.086 345.061Z" fill="#CECDC4"/>
<path d="M646.216 696.918C640.748 705.819 632.483 706.836 628.541 704.039L628.618 703.127C631.468 699.965 633.515 696.385 634.263 692.467C637.951 673.52 632.864 617.314 624.09 581.582C623.582 579.293 625.998 577.513 628.032 578.657C634.645 581.455 643.546 586.668 652.066 592.136C638.078 567.467 619.64 550.3 619.64 550.3C619.64 550.3 603.744 514.441 600.311 504.395C596.878 494.476 623.582 509.481 623.582 509.481C623.582 509.481 602.981 481.887 592.554 474.766C590.901 467.518 582.254 437.508 582.254 437.508C582.254 437.508 590.647 438.652 596.496 440.941C596.242 435.346 574.624 412.202 574.624 412.202L570.809 387.279C570.809 387.279 577.295 387.66 584.161 393.383C582.763 386.007 568.648 373.545 564.451 368.968C561.775 337.494 550.537 289.799 542.877 268.293C544.741 267.096 546.612 265.886 548.454 264.688L548.81 265.204C561.272 296.74 567.63 330.183 572.081 365.153C590.265 378.759 602.6 402.538 609.721 420.087C601.201 410.677 587.849 405.081 581.364 399.868C582.127 402.793 582.763 405.717 583.526 408.769C605.652 428.988 618.114 452.64 626.379 473.113C616.206 461.923 600.82 454.039 593.699 448.698C594.716 452.513 595.733 456.455 596.878 460.397C617.732 485.575 642.274 518.128 653.337 545.595C638.459 529.191 620.657 519.527 612.264 514.568C613.027 516.984 613.663 519.273 614.426 521.689C636.934 551.317 674.828 603.327 690.341 641.475C670.25 619.349 649.141 602.691 639.095 597.477C648.887 625.58 649.65 670.722 646.344 696.663C646.336 696.713 646.332 696.761 646.33 696.809L646.216 696.918Z" fill="#CECDC4"/>
</g>
</svg>
