<svg width="64" height="64" viewBox="0 0 64 64" fill="none" xmlns="http://www.w3.org/2000/svg">
<path d="M32 64C49.6731 64 64 49.6731 64 32C64 14.3269 49.6731 0 32 0C14.3269 0 0 14.3269 0 32C0 49.6731 14.3269 64 32 64Z" fill="white"/>
<path d="M32.0002 2.72339C15.8312 2.72339 2.72363 15.831 2.72363 32C2.72363 34.1675 2.95919 36.2801 3.40609 38.3134L11.2649 29.4248C10.6054 28.7352 10.3024 26.9214 10.1552 26.0402L10.155 26.0395C10.1414 25.9577 10.129 25.8839 10.1179 25.8199C10.3473 26.1803 11.1666 26.7047 11.4943 26.7702C11.8755 26.8719 12.1976 26.875 12.4911 26.856C12.647 27.1997 12.8539 27.5747 13.1064 27.9718C15.4109 26.8657 19.8362 26.6688 26.1433 34.7993C28.8624 33.1442 34.4868 31.9156 36.6945 33.5413C35.5226 34.067 33.6177 35.4058 32.0491 36.5671C31.3376 37.0939 30.6952 37.5841 30.222 37.9453L30.2216 37.9456L30.2208 37.9462L30.2204 37.9465L30.186 37.9728C30.0152 38.1031 29.8677 38.2157 29.7482 38.3059C29.3894 38.593 29.0055 38.8926 28.6019 39.2075C28.084 39.6117 27.5336 40.0411 26.9626 40.5016C21.6521 44.8833 19.3151 50.0114 18.5026 54.7975C18.2754 55.7962 18.1372 56.795 18.0521 57.7468C20.0983 58.8576 22.2918 59.7317 24.5957 60.3321C26.4935 56.421 29.2232 52.138 32.8616 49.4156C34.3055 43.0786 34.4622 39.3159 34.471 38.1452L21.6102 49.4784C22.894 46.7401 24.8788 44.037 27.8475 41.5831C28.8128 40.7787 29.7465 40.069 30.5556 39.4541L30.5561 39.4538L30.5569 39.4532L30.5572 39.4529L30.6003 39.4202C30.7862 39.2741 31.0129 39.0891 31.2735 38.8756L31.3872 38.7823C32.4417 37.9179 33.9991 36.6412 35.6606 35.5674C36.2833 35.165 36.9206 34.791 37.5515 34.478C37.6426 34.6908 37.6742 34.9224 37.6463 35.1598C37.6135 35.3237 37.548 35.422 37.4496 35.5203L35.736 37.0305C35.8138 38.774 35.8779 41.1832 35.7455 42.8284C35.5161 45.6796 34.6313 50.366 34.6313 50.366C34.6313 50.366 29.9121 54.7574 29.5516 56.6582C31.3541 55.1507 32.9927 55.0851 32.9927 55.0851L32.045 61.2765C45.9582 61.2557 57.5961 51.5297 60.5513 38.506C59.3647 32.4941 57.789 26.4755 56.5667 23.044C57.0472 22.7355 57.5293 22.4236 58.004 22.1147L58.0959 22.2477C59.3864 25.5134 60.4229 28.8584 61.2755 32.2763C61.2764 32.1843 61.2768 32.0922 61.2768 32C61.2768 27.3655 60.1999 22.9825 58.2828 19.0876C57.4145 19.662 56.5262 20.2128 55.638 20.7402C53.7794 21.8438 51.8693 22.8959 49.9305 23.7825C49.6815 23.8964 49.4319 24.0075 49.182 24.1157C46.9863 25.0661 44.6595 25.8854 42.431 26.0493C41.3167 26.1148 40.268 26.0165 39.416 25.6232C39.2193 25.5249 38.9899 25.3938 38.8261 25.2627L38.0723 24.7056C37.6135 24.3451 36.9581 23.9191 36.4009 23.5914C34.1069 22.2149 31.5507 21.3629 28.8962 21.0679C27.5853 20.9368 26.2417 20.9041 24.9308 21.0679C23.6199 21.1663 22.3418 21.4612 21.0637 21.8217C19.8184 22.2149 18.6058 22.6738 17.4588 23.2636C17.0472 23.4639 16.6619 23.6642 16.289 23.858L16.2888 23.8581C15.5634 24.2353 14.8847 24.5881 14.1489 24.8695C13.5917 25.0989 13.0346 25.2627 12.543 25.361C12.4136 25.3795 12.2737 25.3876 12.1528 25.3852C12.0595 25.3834 11.9775 25.3753 11.9204 25.361C11.8692 25.3354 11.843 25.3298 11.8281 25.3267C11.8207 25.3251 11.8161 25.3241 11.8127 25.3216C11.8069 25.3174 11.8043 25.3091 11.7971 25.2869L11.797 25.2865L11.7927 25.2732L11.7893 25.2627C11.6432 24.7596 12.0195 24.2084 12.4366 23.78C12.8619 23.3432 13.3296 23.0342 13.3296 23.0342L12.3464 20.6091L13.1985 20.0192C14.2466 19.1507 15.3357 18.3891 16.4516 17.7177C21.9471 14.4115 28.0919 13.2937 33.1892 12.3665C36.3126 11.7984 39.0426 11.3018 40.989 10.4171C41.7829 10.0551 42.5214 9.54535 43.2067 8.92801C44.0951 8.12762 44.8941 7.14632 45.6082 6.07144C41.5426 3.93332 36.9127 2.72339 32.0002 2.72339Z" fill="#010103"/>
<path d="M29.9121 60.6563C30.1088 59.8698 30.3054 59.1161 30.4692 58.3623C29.5581 59.0948 28.1309 59.8564 26.66 60.7907C27.5503 60.9548 28.4547 61.0786 29.3713 61.1602C29.5491 60.9913 29.7293 60.8234 29.9121 60.6563Z" fill="#010103"/>
<path d="M34.6312 50.366C34.6312 50.366 35.5161 45.6796 35.7455 42.8285C35.8779 41.1832 35.8138 38.7741 35.736 37.0305L34.471 38.1452C34.4622 39.3159 34.3054 43.0787 32.8616 49.4156C29.2232 52.1381 26.4934 56.421 24.5957 60.3322C25.2745 60.5091 25.9629 60.6622 26.6599 60.7907C28.1309 59.8565 29.5581 59.0948 30.4692 58.3623C30.3054 59.1161 30.1087 59.8698 29.9121 60.6564C29.7293 60.8234 29.5491 60.9914 29.3713 61.1602C30.2373 61.2372 31.1142 61.2766 32.0002 61.2766L32.045 61.2766L32.9926 55.0851C32.9926 55.0851 31.3541 55.1507 29.5516 56.6582C29.9121 54.7574 34.6312 50.366 34.6312 50.366Z" fill="#CECDC4"/>
<path d="M58.0959 22.2477L58.0039 22.1147C57.5293 22.4236 57.0472 22.7355 56.5667 23.044C57.789 26.4755 59.3647 32.4941 60.5513 38.506C61.0065 36.4999 61.2557 34.4155 61.2755 32.2764C60.4228 28.8584 59.3864 25.5134 58.0959 22.2477Z" fill="#CECDC4"/>
<path d="M49.1816 24.1157C51.3773 23.1653 53.5403 21.9855 55.6377 20.7402C56.5259 20.2128 57.4141 19.662 58.2824 19.0876C55.8578 14.1618 52.0892 10.0166 47.4551 7.13062C45.5461 10.1053 42.6424 13.7429 39.3828 14.743C32.5358 16.8239 28.4113 17.1669 25.2721 17.4279C20.8841 17.7928 18.4212 17.9976 13.1391 22.5652L13.3292 23.0342C13.3292 23.0342 11.494 24.2468 11.7889 25.2627C11.8026 25.3036 11.8049 25.3162 11.8123 25.3216C11.8228 25.3292 11.8435 25.3228 11.92 25.361C12.0511 25.3938 12.3133 25.3938 12.5427 25.361C13.0343 25.2627 13.5914 25.0989 14.1485 24.8695C14.8844 24.5881 15.5632 24.2352 16.2886 23.8581C16.6615 23.6642 17.0468 23.4639 17.4585 23.2636C18.6055 22.6737 19.818 22.2149 21.0634 21.8217C22.3415 21.4612 23.6196 21.1662 24.9304 21.0679C26.2413 20.9041 27.585 20.9368 28.8958 21.0679C31.5504 21.3629 34.1066 22.2149 36.4006 23.5914C36.9577 23.9191 37.6132 24.3451 38.072 24.7056L38.8257 25.2627C38.9896 25.3938 39.219 25.5249 39.4156 25.6232C40.2677 26.0165 41.3164 26.1148 42.4306 26.0493C44.6591 25.8854 46.9859 25.0661 49.1816 24.1157Z" fill="#CECDC4"/>
<path d="M13.1978 20.0193L12.3457 20.6092L13.1387 22.5653C18.4209 17.9977 20.8837 17.7929 25.2717 17.428C28.411 17.167 32.5355 16.824 39.3825 14.743C42.642 13.7429 45.5457 10.1053 47.4548 7.13069C46.8533 6.75607 46.2372 6.40267 45.6075 6.07153C44.3426 7.97547 42.8115 9.58579 40.9883 10.4172C39.0419 11.3019 36.3119 11.7985 33.1885 12.3666C27.0561 13.4821 19.4077 14.8734 13.1978 20.0193Z" fill="#A7A49B"/>
<path d="M37.4488 35.5204C37.5471 35.4221 37.6127 35.3238 37.6454 35.1599C37.6734 34.9224 37.6418 34.6909 37.5506 34.478C34.7434 35.871 31.8098 38.4692 30.5995 39.4202L30.5562 39.4531C29.7468 40.0682 28.8125 40.7783 27.8466 41.5832C24.878 44.0371 22.8932 46.7402 21.6094 49.4785L37.4488 35.5204Z" fill="#854605"/>
<path d="M11.2643 29.3919C11.2643 29.3919 16.5078 22.3787 26.1428 34.7992C28.8619 33.1441 34.4863 31.9155 36.694 33.5412C34.7814 34.3991 30.9164 37.4228 29.7477 38.3058C28.9284 38.9612 27.978 39.6822 26.962 40.5015C21.6516 44.8832 19.3145 50.0113 18.502 54.7973C17.5714 58.8875 18.1347 62.9789 17.7204 63.8351L4.48057 50.7263C1.95714 48.2029 -0.697386 42.8283 1.7605 40.1738L11.2643 29.4246L11.2408 29.4008L11.2643 29.3919Z" fill="#D18D1E"/>
<path d="M19.7198 35.9792C18.8349 37.0279 14.0502 34.2751 12.641 33.423C12.4772 33.3247 12.51 33.0953 12.7066 33.0298C13.8536 32.7021 16.8358 31.85 18.0812 32.1777C19.6542 32.6365 20.7685 34.7667 19.7198 35.9792Z" fill="#854205"/>
<path d="M18.7701 35.1597C18.0491 35.979 13.6904 33.4556 13.6904 33.2589C13.6904 33.0295 16.6071 32.3085 17.6558 32.6035C18.7373 32.8657 19.4911 34.3076 18.7701 35.1597Z" fill="#010103"/>
<path d="M22.9805 23.2533C23.1768 25.469 25.0589 27.229 27.3222 27.229C29.4018 27.229 31.1439 25.7832 31.5982 23.8627C31.0792 23.6844 30.5508 23.5314 30.0151 23.4036C29.7498 24.6374 28.6355 25.5576 27.3222 25.5576C25.8813 25.5576 24.7099 24.4499 24.6092 23.0356C24.0642 23.0822 23.5203 23.1559 22.9805 23.2533Z" fill="white"/>
<path d="M48.6906 25.8198C46.9864 26.4424 45.7739 27.1634 45.0529 27.3601C44.8563 27.4256 44.7252 27.6222 44.7579 27.8516C46.9537 44.0737 48.625 44.8275 49.5099 45.188C50.4275 45.5485 53.6719 43.6149 54.0324 42.6645C54.7861 40.5016 50.1653 39.2235 49.0838 26.082C49.0511 25.8853 48.8872 25.7542 48.6906 25.8198ZM47.9696 37.8471C48.0679 37.2244 48.6578 36.7656 49.2805 36.8639C49.9031 36.9622 50.3292 37.5193 50.2636 38.1748C50.1653 38.7974 49.6082 39.2235 48.9855 39.1579C48.3301 39.0596 47.8713 38.4697 47.9696 37.8471ZM50.5586 43.1561C49.8704 43.0578 49.3788 42.4351 49.4771 41.7469C49.5754 41.0587 50.1981 40.5999 50.8863 40.6654C51.5745 40.7638 52.0333 41.3864 51.9677 42.0746C51.8694 42.7628 51.2468 43.2544 50.5586 43.1561Z" fill="#CECDC4"/>
<path d="M56.457 16.9717L56.4898 16.9389C56.6636 16.8628 56.805 16.7472 56.9081 16.6074C55.409 14.1869 53.567 12.0011 51.4499 10.1179L45.9372 11.6298C45.544 11.7281 45.2818 12.1542 45.3801 12.5474V12.5802L46.9532 19.4295C46.9532 19.4623 46.9859 19.5279 46.9859 19.5606C47.1826 20.0522 47.7069 20.3144 48.1985 20.1178H48.2313L56.3915 17.0044L56.457 16.9717Z" fill="#010103"/>
<path d="M55.9979 15.9555L47.9033 19.1999L47.3789 17.2664L55.1983 14.1387C55.3339 14.3146 55.4676 14.4921 55.5993 14.6712L55.9979 15.9555Z" fill="#EEB11B"/>
<path d="M46.7568 14.8741L47.3795 17.2664L55.1988 14.1387C54.7698 13.5823 54.3212 13.0417 53.854 12.5181L46.7568 14.8741Z" fill="#C1000C"/>
</svg>
